<!-- Generator: Adobe Illustrator 19.1.0, SVG Export Plug-In  -->
<svg version="1.1"
	 xmlns="http://www.w3.org/2000/svg" xmlns:xlink="http://www.w3.org/1999/xlink" xmlns:a="http://ns.adobe.com/AdobeSVGViewerExtensions/3.0/"
	 x="0px" y="0px" width="150.8px" height="152.1px" viewBox="0 0 150.8 152.1" style="enable-background:new 0 0 150.8 152.1;"
	 xml:space="preserve">
<style type="text/css">
	.st0{fill:#008BD9;}
	.st1{fill:#333333;}
</style>
<defs>
</defs>
<g id="keys_1_">
	<g id="key_4_">
		<path class="st0" d="M30.1,50.3c-3,0.1-6-0.9-8.4-3.1c-4.6-4.4-4.8-11.6-0.4-16.3c1.4-1.5,3.1-2.5,4.9-3.1
			c0.3-2.2,0.8-4.4,1.5-6.5c-6.9,1.1-13.5,4.4-18.6,9.9C-3.5,44.5-2.9,65.3,10.3,77.9C23.6,90.4,44.4,89.8,57,76.6
			c2.1-2.2,3.8-4.6,5.1-7.1C48.3,69.4,36.2,61.7,30.1,50.3z"/>
		<path class="st0" d="M68.3,141.7L54.6,83.1c-2.3,2-4.7,3.5-7.3,4.8l10.2,43.7l0,0c0.2,0.9-0.1,1.9-1,2.5c-0.7,0.4-1.5,0.4-2.2,0.1
			c-0.6-0.3-1-0.9-1.1-1.5l0,0L43.1,89.6c-5.6,1.8-11.5,2-17.2,0.7L21,99.5l10.8,5.7c0,0-4.9,9.2-4.9,9.2l10.8,5.7l-5.9,10.5
			c0,0,13,22.3,18.6,21.4l12.8-2.9c1.2-0.3,2.5-0.9,3.4-1.9C68.1,145.7,68.7,143.6,68.3,141.7z"/>
	</g>
	<g id="key_3_">
		<path class="st1" d="M62.2,0c-18.2,0-33,14.8-33,33s14.8,33,33,33s33-14.8,33-33S80.4,0,62.2,0z M49.3,35.9
			c-6.4,0-11.5-5.1-11.5-11.5S43,12.9,49.3,12.9S60.8,18,60.8,24.4S55.7,35.9,49.3,35.9z"/>
		<path class="st1" d="M148.2,72.5L98,39.4c-0.3,3-1,5.8-2.1,8.5l37.5,24.7h0c0.8,0.5,1.2,1.5,0.9,2.5c-0.2,0.7-0.8,1.4-1.6,1.6
			c-0.7,0.2-1.3,0-1.9-0.3v0L94,52c-2.8,5.1-7,9.4-12,12.3l2.8,10l11.8-3.2c0,0,2.8,10,2.8,10l11.8-3.2l2.9,11.7
			c0,0,24.8,7.2,28.2,2.7l7.3-10.9c0.7-1.1,1.2-2.4,1.2-3.8C150.8,75.6,149.8,73.6,148.2,72.5z"/>
	</g>
</g>
</svg>
