<!-- Generator: Adobe Illustrator 19.1.0, SVG Export Plug-In  -->
<svg version="1.1"
	 xmlns="http://www.w3.org/2000/svg" xmlns:xlink="http://www.w3.org/1999/xlink" xmlns:a="http://ns.adobe.com/AdobeSVGViewerExtensions/3.0/"
	 x="0px" y="0px" width="109.7px" height="153.8px" viewBox="0 0 109.7 153.8" style="enable-background:new 0 0 109.7 153.8;"
	 xml:space="preserve">
<style type="text/css">
	.st0{fill:#333333;}
	.st1{fill:#008BD9;}
</style>
<defs>
</defs>
<g id="door-hardware_1_">
	<path class="st0" d="M54.9,53.3l-0.4,0.1c-0.6,0.2-1.3,0.4-1.9,0.6c-0.4,0.1-0.9,0.3-1.3,0.4c-1.2,0.3-2.3,0.7-3.4,1.1
		C46.3,63,40.1,68.9,32.3,70c-0.9,0.1-1.7,0.2-2.6,0.2c-9.6,0-17.5-7.2-18.5-16.8c-0.9-9.3,5.5-18.1,14.7-20
		c1.2-0.3,2.5-0.4,3.7-0.4c2,0,4,0.3,6,1c0.6-0.2,1.3-0.4,2-0.6l0,0l0,0c0.6-0.2,1.2-0.3,1.9-0.5c1.8-0.5,3.7-1,5.8-1.4
		c0.4-0.1,0.9-0.2,1.3-0.3c0.9-0.2,1.9-0.4,2.9-0.6l2.7-0.4l1.6-0.2c0.5-0.1,1-0.2,1.5-0.2v-4.7v-4.9h-7.6C47.8,9,38.8,0,27.7,0
		C16.6,0,7.6,9,7.6,20.1H0v113.6h7.6c0,11.1,9,20.1,20.1,20.1c11.1,0,20.1-9,20.1-20.1h7.6V84.9V66.9V53.1L54.9,53.3z M32.9,113.2
		c0,0,0,11.8,0,11.8c0,2.9-2.3,5.2-5.2,5.2c-2.9,0-5.2-2.3-5.2-5.2v-11.8c-2.9-1.8-4.9-5-4.9-8.6c0-5.6,4.5-10.1,10.1-10.1
		c5.6,0,10.1,4.5,10.1,10.1C37.8,108.3,35.8,111.5,32.9,113.2z"/>
	<path class="st1" d="M30.3,66.3c-7.5,0.3-13.9-5.1-14.9-12.5c-1-7.3,3.8-14.3,10.9-16.1c1-0.2,1.9-0.4,2.9-0.4
		c1.8-0.1,3.5,0.2,5.2,0.8l0.2-0.1c0.6-0.2,1.3-0.5,2-0.7c0.6-0.2,1.1-0.4,1.7-0.5c1.6-0.5,3.2-1,4.9-1.4c0.4-0.1,0.8-0.2,1.1-0.3
		c0.8-0.2,1.6-0.4,2.5-0.6l3.7-0.7c0.9-0.2,1.8-0.3,2.6-0.4c0.4-0.1,0.9-0.1,1.3-0.2l2-0.3c0.5-0.1,0.9-0.1,1.4-0.1l2-0.2
		c0.9-0.1,1.8-0.2,2.7-0.2l4.1-0.2c0.1,0,0.3,0,0.4,0c0.9,0,1.8,0,2.6,0c0.4,0,0.7,0,1.1,0c0.5,0,0.9,0,1.3,0c0.9,0,1.9,0,2.9,0.1
		l3.9,0.3c0.9,0.1,1.8,0.2,2.6,0.3c0.4,0.1,0.9,0.1,1.3,0.2c2.2,0.2,4.3,0.6,6.4,1l1.5,0.3c0.4,0.1,0.8,0.1,1.2,0.2l4.7,1.2
		c0.8,0.2,1.6,0.4,2.3,0.7l3,0.9c1.3,0.4,2.5,0.8,3.4,1.2l1.6,0.6c2.2,0.9,3.4,3.4,2.5,5.6l-1.1,2.8c-0.6,1.7-2.2,2.8-3.9,2.8
		c0,0,0,0,0,0c-0.5,0-0.9,0-1.4-0.2l-1.6-0.4c-0.9-0.2-1.8-0.5-2.9-0.7l-2.9-0.6c-0.6-0.1-1.2-0.3-1.9-0.4l-4.3-0.7
		c-0.3,0-0.6-0.1-0.9-0.1c-0.2,0-1.6-0.1-1.6-0.1c-1.7-0.2-3.5-0.3-5.4-0.4c-0.4,0-0.9,0-1.3,0c-0.7,0-1.4-0.1-2.1,0l-3.6,0.1
		c-0.3,0-0.5,0-0.7,0c-0.5,0-1,0.1-1.6,0.1c-0.4,0-0.8,0.1-1.2,0.1c-0.3,0-0.7,0.1-1.1,0.1c-0.8,0.1-1.6,0.1-2.4,0.2l-3.6,0.5
		c-0.7,0.1-1.4,0.2-2.1,0.4c-0.4,0.1-0.9,0.2-1.3,0.2c-0.2,0-0.4,0.1-0.6,0.1c-0.3,0.1-0.7,0.1-1,0.2l-1.7,0.4
		c-0.4,0.1-0.8,0.2-1.2,0.3c-0.7,0.2-1.3,0.3-2,0.5L51,50.8c-0.6,0.2-1.2,0.4-1.8,0.6c-0.4,0.1-0.7,0.3-1.1,0.4
		c-1.3,0.4-2.5,0.9-3.6,1.4c-0.1,0.1-0.2,0.1-0.4,0.1c-0.7,6.3-5.5,11.6-11.8,12.7C31.6,66.2,30.9,66.3,30.3,66.3z"/>
</g>
</svg>
